<svg width="32" height="32" viewBox="0 0 32 32" fill="none" xmlns="http://www.w3.org/2000/svg">
<rect width="32" height="32" rx="5" fill="#F97316"/>
<g clip-path="url(#clip0_217_2008)">
<path d="M20.9274 20.9303H18.8542V17.6818C18.8542 16.9071 18.8385 15.9102 17.7739 15.9102C16.693 15.9102 16.5279 16.7531 16.5279 17.6246V20.9303H14.4547V14.25H16.4462V15.1606H16.4731C16.7513 14.6356 17.428 14.0814 18.4389 14.0814C20.5395 14.0814 20.928 15.4639 20.928 17.2635L20.9274 20.9303ZM12.1132 13.3359C11.9551 13.336 11.7985 13.3049 11.6524 13.2444C11.5062 13.1838 11.3735 13.0951 11.2617 12.9832C11.1499 12.8713 11.0613 12.7385 11.0009 12.5923C10.9406 12.4461 10.9096 12.2895 10.9098 12.1313C10.9099 11.8932 10.9807 11.6605 11.1131 11.4625C11.2455 11.2646 11.4336 11.1104 11.6536 11.0193C11.8737 10.9283 12.1158 10.9046 12.3493 10.9512C12.5828 10.9977 12.7973 11.1125 12.9656 11.281C13.1339 11.4494 13.2485 11.664 13.2948 11.8976C13.3412 12.1312 13.3172 12.3732 13.226 12.5932C13.1347 12.8132 12.9803 13.0011 12.7823 13.1333C12.5842 13.2655 12.3514 13.336 12.1132 13.3359ZM13.1528 20.9303H11.0738V14.25H13.1528V20.9303ZM21.9646 9H10.0331C9.462 9 9 9.4515 9 10.0086V21.9914C9 22.5491 9.462 23 10.0331 23H21.9628C22.5333 23 23 22.5491 23 21.9914V10.0086C23 9.4515 22.5333 9 21.9628 9H21.9646Z" fill="white"/>
</g>
<defs>
<clipPath id="clip0_217_2008">
<rect width="14" height="14" fill="white" transform="translate(9 9)"/>
</clipPath>
</defs>
</svg>
