<svg xmlns="http://www.w3.org/2000/svg" width="58" height="58" viewBox="0 0 58 58" fill="none"><rect width="58" height="58" rx="8.92308" fill="#FF6B00" fill-opacity="0.12"></rect><rect x="0.557692" y="0.557692" width="56.8846" height="56.8846" rx="8.36538" stroke="#FF6B00" stroke-opacity="0.2" stroke-width="1.11538"></rect><g clip-path="url(#clip0_238_306)"><mask id="mask0_238_306" style="mask-type:luminance" maskUnits="userSpaceOnUse" x="9" y="9" width="40" height="40"><path d="M9 9H49V49H9V9Z" fill="white"></path></mask><g mask="url(#mask0_238_306)"><path d="M20.102 28.5312H17.3092C15.1353 28.5312 13.373 26.77 13.373 24.5975C13.373 22.9477 14.3897 21.5361 15.8307 20.9518C15.7681 20.6734 15.7341 20.3841 15.7341 20.0867C15.7341 17.9142 17.4963 16.153 19.6702 16.153C19.8117 16.153 19.9512 16.1613 20.0888 16.1759C21.0633 13.5241 23.1556 11.4123 25.7947 10.412C26.7374 9.93426 29.4581 9.26548 32.7988 10.412" stroke="#FF6B00" stroke-width="1.5625" stroke-miterlimit="10" stroke-linecap="round" stroke-linejoin="round"></path><path d="M20.4473 28.5312H39.1345C42.1681 28.5312 44.6274 26.0735 44.6274 23.0418C44.6274 20.0101 42.1681 17.5524 39.1345 17.5524C39.0272 17.5524 38.9208 17.5565 38.8149 17.5626C38.1363 14.269 35.7986 11.5813 32.7139 10.412" stroke="#FF6B00" stroke-width="1.5625" stroke-miterlimit="10" stroke-linecap="round" stroke-linejoin="round"></path><path d="M46.6562 35.7188H33.2187C32.3558 35.7188 31.6562 36.4183 31.6562 37.2813V40.4063C31.6562 41.2692 32.3558 41.9688 33.2187 41.9688H46.6562C47.5192 41.9688 48.2187 41.2692 48.2187 40.4063V37.2813C48.2187 36.4183 47.5192 35.7188 46.6562 35.7188Z" stroke="#FF6B00" stroke-width="1.5625" stroke-miterlimit="10" stroke-linecap="round" stroke-linejoin="round"></path><path d="M45.0936 38.8438H41.2041" stroke="#FF6B00" stroke-width="1.5625" stroke-miterlimit="10" stroke-linecap="round" stroke-linejoin="round"></path><path d="M46.6562 41.9688H33.2187C32.3558 41.9688 31.6562 42.6683 31.6562 43.5313V46.6563C31.6562 47.5192 32.3558 48.2188 33.2187 48.2188H46.6562C47.5192 48.2188 48.2187 47.5192 48.2187 46.6563V43.5313C48.2187 42.6683 47.5192 41.9688 46.6562 41.9688Z" stroke="#FF6B00" stroke-width="1.5625" stroke-miterlimit="10" stroke-linecap="round" stroke-linejoin="round"></path><path d="M45.0936 45.0938H41.2041" stroke="#FF6B00" stroke-width="1.5625" stroke-miterlimit="10" stroke-linecap="round" stroke-linejoin="round"></path><path d="M24.7803 35.7188H11.3428C10.4798 35.7188 9.78027 36.4183 9.78027 37.2813V40.4063C9.78027 41.2692 10.4798 41.9688 11.3428 41.9688H24.7803C25.6432 41.9688 26.3428 41.2692 26.3428 40.4063V37.2813C26.3428 36.4183 25.6432 35.7188 24.7803 35.7188Z" stroke="#FF6B00" stroke-width="1.5625" stroke-miterlimit="10" stroke-linecap="round" stroke-linejoin="round"></path><path d="M23.2176 38.8438H19.3281" stroke="#FF6B00" stroke-width="1.5625" stroke-miterlimit="10" stroke-linecap="round" stroke-linejoin="round"></path><path d="M24.7803 41.9688H11.3428C10.4798 41.9688 9.78027 42.6683 9.78027 43.5313V46.6563C9.78027 47.5192 10.4798 48.2188 11.3428 48.2188H24.7803C25.6432 48.2188 26.3428 47.5192 26.3428 46.6563V43.5313C26.3428 42.6683 25.6432 41.9688 24.7803 41.9688Z" stroke="#FF6B00" stroke-width="1.5625" stroke-miterlimit="10" stroke-linecap="round" stroke-linejoin="round"></path><path d="M23.2176 45.0938H19.3281" stroke="#FF6B00" stroke-width="1.5625" stroke-miterlimit="10" stroke-linecap="round" stroke-linejoin="round"></path><path d="M39.9375 35.1941V31.9692H29" stroke="#FF6B00" stroke-width="1.5625" stroke-miterlimit="10" stroke-linecap="round" stroke-linejoin="round"></path><path d="M18.082 35.7188V31.9688H28.9997" stroke="#FF6B00" stroke-width="1.5625" stroke-miterlimit="10" stroke-linecap="round" stroke-linejoin="round"></path><path d="M29 31.8906V28.8438" stroke="#FF6B00" stroke-width="1.5625" stroke-miterlimit="10" stroke-linecap="round" stroke-linejoin="round"></path></g></g><defs><clipPath id="clip0_238_306"><rect width="40" height="40" fill="white" transform="translate(9 9)"></rect></clipPath></defs></svg>